<svg id="Layer_1" data-name="Layer 1" xmlns="http://www.w3.org/2000/svg" viewBox="0 0 431.82 229.23">
  <defs>
    <style>
      .cls-12 {
        fill: #f0011f;
      }
    </style>
  </defs>
  <path class="cls-12" d="M215.88,54c.57-.68.86-1.1,1.21-1.45,6.9-6.9,13.7-13.91,20.74-20.66a112.38,112.38,0,0,1,55.92-29.5,115,115,0,0,1,126,61,112.69,112.69,0,0,1,10.43,32.09,114.56,114.56,0,0,1-80.17,128.86,118.49,118.49,0,0,1-23.31,4.39,110.21,110.21,0,0,1-20.63-.12c-26.28-2.71-49.11-13-68.24-31.28-7.06-6.74-13.85-13.76-20.75-20.66-.35-.35-.66-.75-1.09-1.26-.46.44-.81.77-1.15,1.11-6.46,6.45-12.88,12.92-19.36,19.34A113.12,113.12,0,0,1,140,226.43,111.59,111.59,0,0,1,108.5,229Q64.28,226.39,33,195A112,112,0,0,1,2.18,136.85,110.21,110.21,0,0,1,.26,107.46c1.9-27.83,12.41-52,31.7-72.15A112.48,112.48,0,0,1,86.73,3.44,116.76,116.76,0,0,1,108.18.2a110.24,110.24,0,0,1,18.17.4,113,113,0,0,1,63.73,27.69c2.07,1.79,4,3.69,6,5.61q9.36,9.3,18.67,18.67A17.32,17.32,0,0,1,215.88,54ZM198.13,71.38c-.35-.36-.65-.69-1-1C190.74,64,184.36,57.5,177.9,51.13A89.86,89.86,0,0,0,93.25,27.59a89.66,89.66,0,0,0-68.1,82.65,90.8,90.8,0,0,0,2.34,25.23A89.73,89.73,0,0,0,133.65,202.2a88,88,0,0,0,43.47-23.33c6.86-6.68,13.56-13.53,20.33-20.3.25-.24.45-.53.56-.65l-25.59-25.58a10,10,0,0,1-.85,1.11c-6.25,6.26-12.53,12.49-18.76,18.77a53.52,53.52,0,1,1-30-90.45,51.94,51.94,0,0,1,29.14,14.42c6.66,6.49,13.18,13.12,19.77,19.69.34.34.69.67,1,1Zm35.65,86.54c.26.27.59.63.94,1,6.32,6.32,12.62,12.66,19,18.95,16.07,15.93,35.45,24.6,58,26.15a89.47,89.47,0,0,0,69.49-26.73c17.54-18.12,26-39.88,25.57-65.09a84.5,84.5,0,0,0-2.45-18.66,87.64,87.64,0,0,0-24.15-42.59c-16-15.74-35.37-24.22-57.76-25.7a86,86,0,0,0-22.58,1.53,87.1,87.1,0,0,0-43.49,22.15c-7.6,7.16-14.83,14.71-22.23,22.08-.14.15-.23.35-.18.28l25.53,25.52a11.16,11.16,0,0,1,.88-1c6.25-6.26,12.43-12.59,18.78-18.76,14-13.62,30.8-18.64,49.86-14.5a53.45,53.45,0,0,1-19.91,105A52.05,52.05,0,0,1,279.91,153c-6.63-6.46-13.12-13.06-19.68-19.6-.34-.35-.71-.68-1-.95ZM276.9,114.6c.15.19.19.27.26.34,6.7,6.7,13.31,13.51,20.14,20.08a27.39,27.39,0,0,0,26.08,7.37,28.46,28.46,0,0,0-4-56.16,27.75,27.75,0,0,0-22.46,8.31c-6.42,6.34-12.78,12.75-19.16,19.13Zm-122,0c-.19-.22-.32-.4-.48-.55-6.64-6.64-13.13-13.44-20-19.88-8.6-8.1-18.75-10.17-29.86-6.18a28.45,28.45,0,0,0,7.85,55,27.72,27.72,0,0,0,22.45-8.34c6.41-6.35,12.77-12.75,19.15-19.13C154.36,115.26,154.62,115,154.93,114.62Zm35.8,0,25.13,25.11,25.21-25.2L216,89.41Z"/>
</svg>
