<svg xmlns="http://www.w3.org/2000/svg" viewBox="0 0 1080 1080"><defs><style>.cls-1{fill:#204022;}.cls-2,.cls-4{fill:#fff;}.cls-2{stroke:#fff;stroke-width:13px;}.cls-2,.cls-5{stroke-miterlimit:10;}.cls-3{fill:#efefed;}.cls-5{fill:none;stroke:#f0001e;stroke-width:11px;}</style></defs><g id="Lag_3" data-name="Lag 3"><path class="cls-1" d="M551,296.35c191.77-438.93,950.47,45-2.8,656.68C-365.62,325.34,332-131,551,296.35Z"/></g><g id="Lys"><path id="Lys-2" data-name="Lys" class="cls-2" d="M805.54,751.06l-62.61,56.76-.39.34-53.17,42.52-48.55,37.91-.51.37-86.53,57.65a8.29,8.29,0,0,1-9.35-.09l-77.94-56.8c-1.4-1.05-114.35-92.74-115.65-93.92l-43.35-43.32a8.35,8.35,0,0,1-2.44-5.8l-2.74-264.39a8.3,8.3,0,0,1,8.31-8.4H797.21a8.31,8.31,0,0,1,8.31,8.23l2.75,262.7A8.32,8.32,0,0,1,805.54,751.06Z"/><path id="Skygge" class="cls-3" d="M596,439.88C728.53,441.21,810,456,810,476.6c0,21.61-114.84,39.13-256.5,39.13S297,498.21,297,476.6c0-20.19,85.45-34.89,214-36.72"/><path id="flamme" class="cls-4" d="M508,414.66c0,38.34,20.22,69.42,45.15,69.42s45.16-31.08,45.16-69.42-42.42-121.73-46.52-101.27C546.28,340.7,508,376.33,508,414.66Z"/></g><g id="Sløjfe"><path class="cls-5" d="M558.46,764.11c17.43-15.7,26.41-23.59,39.74-25.12a44.21,44.21,0,0,1,25,4.72c17.41,9.1,22.17,26.91,22.83,29.57,4.15,16.7-1,37-16.66,48.89a46.2,46.2,0,0,1-23.65,9.17,45.66,45.66,0,0,1-19.9-2.53c-4.57-1.68-10.83-7.54-23.29-19.07-7-6.49-16.47-15.1-35.42-32.08-8.6-7.72-13-11.59-19.53-11.32a19.28,19.28,0,0,0-11.9,33.57c6.41,5.34,14.75,3.68,16.6,3.3,8.1-1.62,13.08-7.21,16.61-11C528.81,792.19,533.36,786.72,558.46,764.11Z"/><path class="cls-5" d="M550,763.35c-17.43-15.71-26.41-23.6-39.74-25.11a44.38,44.38,0,0,0-25,4.7c-17.42,9.11-22.15,26.93-22.83,29.59-4.15,16.7,1,36.92,16.68,48.89A46.31,46.31,0,0,0,522.7,828c4.54-1.66,10.83-7.55,23.28-19.06,7-6.49,16.48-15,35.42-32.08,8.61-7.73,13-11.58,19.51-11.32a19.29,19.29,0,0,1,11.93,33.57c-6.42,5.34-14.78,3.66-16.61,3.3-8.11-1.62-13.09-7.21-16.62-11C579.61,791.43,575.06,786,550,763.35Z"/></g></svg>