<svg xmlns="http://www.w3.org/2000/svg" viewBox="0 0 641 634"><defs><style>.cls-1,.cls-2{fill:none;stroke-miterlimit:10;}.cls-1{stroke:#283f25;stroke-width:8px;}.cls-2{stroke:#f0001e;stroke-width:6px;}</style></defs><g id="midt"><path class="cls-1" d="M288.34,216.61c0,25.22,13.29,45.66,29.69,45.66s29.7-20.44,29.7-45.66-27.9-80.07-30.6-66.61C313.53,168,288.34,191.39,288.34,216.61Z"/><path class="cls-1" d="M345.3,234c85.1.86,137.4,10.43,137.4,23.76,0,14-73.72,25.32-164.67,25.32s-164.66-11.34-164.66-25.32c0-13.07,54.85-22.58,137.4-23.76"/><path class="cls-1" d="M317.72,147.59c126.14-288.71,625.18,29.63-1.84,431.94C-285.16,166.66,173.7-133.5,317.72,147.59Z"/><line class="cls-1" x1="484.16" y1="257.07" x2="484.17" y2="447.9"/><line class="cls-1" x1="153.89" y1="260.07" x2="154.96" y2="448.14"/><path class="cls-2" d="M319.81,491.07c9.24-8.32,14-12.5,21.06-13.31a23.5,23.5,0,0,1,13.25,2.5c9.23,4.82,11.75,14.26,12.1,15.67,2.2,8.85-.51,19.58-8.84,25.91a24.5,24.5,0,0,1-23.12,3.52c-2.41-.88-5.74-4-12.34-10.11-3.71-3.44-8.73-7.95-18.76-17-4.56-4.09-6.92-6.14-10.35-6a10.23,10.23,0,0,0-6.31,17.8c3.4,2.82,7.82,1.94,8.8,1.74,4.29-.86,6.93-3.82,8.8-5.84C304.1,506,306.51,503.06,319.81,491.07Z"/><path class="cls-2" d="M315.31,490.67c-9.24-8.33-14-12.5-21.06-13.31A23.52,23.52,0,0,0,281,479.85c-9.23,4.83-11.75,14.27-12.1,15.68-2.2,8.85.51,19.57,8.84,25.91a24.46,24.46,0,0,0,12.52,4.86,24.16,24.16,0,0,0,10.6-1.35c2.41-.88,5.74-4,12.34-10.1,3.71-3.44,8.73-8,18.76-17,4.57-4.1,6.92-6.14,10.35-6a10.22,10.22,0,0,1,6.32,17.79c-3.41,2.83-7.83,1.94-8.81,1.75-4.29-.86-6.93-3.82-8.8-5.84C331,505.55,328.61,502.65,315.31,490.67Z"/></g></svg>